# xmcd
#
# Track frame offsets:
#	150
#	12610
#	26034
#	43080
#	60674
#	77067
#	95078
#	109122
#	131399
#	144009
#	156398
#	175891
#	191901
#	211962
#	227366
#	241608
#	255804
#
# Disc length: 3626
#
# Revision: 1
# Processed by: cddbd v1.5.1PL0 Copyright (c) Steve Scherf et al.
# Submitted via: CDex 1.50beta9
# Normalized: r0:TDELIM( - )
#
DISCID=db0e2811
DTITLE=Various Artist - il était une fois la Country 2
DYEAR=2003
DGENRE=Country
TTITLE0=Chris Hillman - Lifeboat (76)
TTITLE1=The Desert Rose Band/ E. Harris - Price I Pay (93)
TTITLE2=Bonnie Raitt - Love has No Pride (72)
TTITLE3=L. Ronstadt - Blue Bayou (77)
TTITLE4=Jesse Sykes - Don't let me Go (2002)
TTITLE5=Stephen Stills/ Manassas - So begins the Task (72)
TTITLE6=Lyle Lovet - If I Had a Boat (87)
TTITLE7=Ryan Adams - Oh my sweet Carolina (2000)
TTITLE8=Leann Rimes - Blue (96)
TTITLE9=Alan Jackson - Dallas (91)
TTITLE10=Travis Tritt - Put some drive in your Country (95)
TTITLE11=Randy Travis - Forever and Ever, Amen (87)
TTITLE12=Dwight Yoakam - A Thousand miles from Nowhere ( 92)
TTITLE13=Hank Williams III - 7 Months, 39 Days (2002)
TTITLE14=Hal Ketchum - I Saw the Light (98)
TTITLE15=k.d. Lang - Big Boned Gal (89)
TTITLE16=Tim Mc Gray - Just to See your Smile (97)
EXTD=YEAR: 2003
EXTT0=
EXTT1=
EXTT2=
EXTT3=
EXTT4=
EXTT5=
EXTT6=
EXTT7=
EXTT8=
EXTT9=
EXTT10=
EXTT11=
EXTT12=
EXTT13=
EXTT14=
EXTT15=
EXTT16=
PLAYORDER=
